<svg width="150" height="150" viewBox="0 0 150 150" fill="none" xmlns="http://www.w3.org/2000/svg">
<g clip-path="url(#clip0_1_30)">
<path d="M100.683 68.7087H95.8099H40.4716V82.3581H99.1687H102.577H109.36V68.7087H100.683Z" fill="white"/>
<path d="M26.8127 44.2339L26.8127 106.833H40.4786V44.2339H26.8127Z" fill="white"/>
<path d="M13.1531 54.8927L13.1531 96.1701H26.8189V54.8927H13.1531Z" fill="white"/>
<path d="M109.368 44.2349V106.834H123.034V44.2349H109.368Z" fill="white"/>
<path d="M123.028 54.898V96.1754H136.694V54.898H123.028Z" fill="white"/>
<path d="M109.369 44.2349V106.834H123.034V44.2349H109.369Z" fill="white"/>
<path d="M13.1564 68.7087H2.4707V82.3745H13.1564V68.7087Z" fill="white"/>
<path d="M147.378 68.7087H136.692V82.3745H147.378V68.7087Z" fill="white"/>
<path d="M109.364 84.0095H99.1769C98.2664 84.0095 97.5304 83.2735 97.5304 82.363C97.5304 81.4525 98.2664 80.7165 99.1769 80.7165H107.717V70.3503H95.8065C94.896 70.3503 94.16 69.6126 94.16 68.7038C94.16 67.7949 94.896 67.0573 95.8065 67.0573H109.364C110.274 67.0573 111.01 67.7949 111.01 68.7038V82.363C111.01 83.2735 110.274 84.0095 109.364 84.0095Z" fill="white"/>
<path d="M89.3771 84.0095H40.4683C39.5594 84.0095 38.8218 83.2735 38.8218 82.363V68.7038C38.8218 67.7949 39.5594 67.0573 40.4683 67.0573H52.8169C53.7258 67.0573 54.4634 67.7949 54.4634 68.7038C54.4634 69.6126 53.7258 70.3503 52.8169 70.3503H42.1147V80.7165H89.3787C90.2892 80.7165 91.0252 81.4525 91.0252 82.363C91.0252 83.2735 90.2876 84.0095 89.3771 84.0095Z" fill="white"/>
<path d="M40.4682 108.48H26.809C25.9001 108.48 25.1625 107.744 25.1625 106.833V44.2354C25.1625 43.3265 25.9001 42.5889 26.809 42.5889H40.4682C41.3771 42.5889 42.1147 43.3265 42.1147 44.2354V106.833C42.1147 107.744 41.3771 108.48 40.4682 108.48ZM28.4554 105.187H38.8217V45.8818H28.4554V105.187Z" fill="white"/>
<path d="M26.809 97.8169H13.1481C12.2392 97.8169 11.5016 97.0809 11.5016 96.1704V54.8964C11.5016 53.9875 12.2392 53.2499 13.1481 53.2499H26.8073C27.7162 53.2499 28.4538 53.9875 28.4538 54.8964V96.1704C28.4554 97.0809 27.7178 97.8169 26.809 97.8169ZM14.7946 94.5239H25.1608V56.5428H14.7946V94.5239Z" fill="white"/>
<path d="M123.025 108.48H109.364C108.453 108.48 107.717 107.744 107.717 106.833V44.2354C107.717 43.3265 108.453 42.5889 109.364 42.5889H123.025C123.935 42.5889 124.671 43.3265 124.671 44.2354V106.833C124.671 107.744 123.933 108.48 123.025 108.48ZM111.01 105.187H121.378V45.8818H111.01V105.187Z" fill="white"/>
<path d="M136.684 97.8169H123.025C122.114 97.8169 121.378 97.0809 121.378 96.1704V54.8964C121.378 53.9875 122.114 53.2499 123.025 53.2499H136.684C137.594 53.2499 138.33 53.9875 138.33 54.8964V96.1704C138.33 97.0809 137.593 97.8169 136.684 97.8169ZM124.671 94.5239H135.037V56.5428H124.671V94.5239Z" fill="white"/>
<path d="M13.148 84.0095H2.47058C1.56172 84.0095 0.824097 83.2735 0.824097 82.363V68.7038C0.824097 67.7949 1.56172 67.0573 2.47058 67.0573H13.148C14.0569 67.0573 14.7945 67.7949 14.7945 68.7038V82.363C14.7945 83.2735 14.0585 84.0095 13.148 84.0095ZM4.11707 80.7165H11.5015V70.3503H4.11707V80.7165Z" fill="white"/>
<path d="M147.361 84.0095H136.684C135.773 84.0095 135.037 83.2735 135.037 82.363V68.7038C135.037 67.7949 135.773 67.0573 136.684 67.0573H147.361C148.272 67.0573 149.008 67.7949 149.008 68.7038V82.363C149.008 83.2735 148.272 84.0095 147.361 84.0095ZM138.33 80.7165H145.715V70.3503H138.33V80.7165Z" fill="white"/>
<path d="M59.6053 124.151C58.6965 124.151 57.9588 123.415 57.9588 122.504V106.449C57.9588 102.71 56.6433 99.0666 54.2542 96.1902L53.4738 95.25C50.5941 91.7842 49.0085 87.393 49.0085 82.8866C49.0085 81.9761 49.7462 81.2401 50.655 81.2401C51.5639 81.2401 52.3015 81.9761 52.3015 82.8866C52.3015 86.6258 53.6171 90.2678 56.0061 93.1458L56.7865 94.086C59.6662 97.5518 61.2502 101.943 61.2502 106.449V122.504C61.2518 123.415 60.5142 124.151 59.6053 124.151Z" fill="white"/>
<path d="M90.2266 124.151C89.3161 124.151 88.5802 123.415 88.5802 122.504V106.449C88.5802 101.945 90.1657 97.5535 93.0454 94.086L93.8275 93.1458C96.2166 90.2678 97.5321 86.6241 97.5321 82.8866V76.6448C97.5321 75.0526 96.2363 73.7568 94.6442 73.7568H80.8861C78.8231 73.7568 77.1453 75.4362 77.1453 77.4976C77.1453 79.2726 78.5893 80.7165 80.3642 80.7165H89.3803C90.2909 80.7165 91.0268 81.4525 91.0268 82.363C91.0268 83.2735 90.2909 84.0095 89.3803 84.0095H80.3642C76.7732 84.0095 73.8507 81.0886 73.8507 77.4976C73.8507 73.6185 77.007 70.4639 80.8861 70.4639H94.6442C98.0524 70.4639 100.825 73.2365 100.825 76.6448V82.8866C100.825 87.3914 99.2395 91.7809 96.3614 95.25L95.5794 96.1902C93.1903 99.0682 91.8731 102.712 91.8731 106.449V122.504C91.8731 123.415 91.1371 124.151 90.2266 124.151Z" fill="white"/>
<path d="M59.4916 73.7568H56.7963C53.6598 73.7568 51.1094 71.2064 51.1094 68.0699V63.2309C51.1094 60.0943 53.6598 57.5439 56.7963 57.5439H59.4916C62.6282 57.5439 65.1786 60.0943 65.1786 63.2309V68.0699C65.1786 71.2064 62.6282 73.7568 59.4916 73.7568ZM56.7963 60.8352C55.4758 60.8352 54.4023 61.9087 54.4023 63.2292V68.0682C54.4023 69.3887 55.4758 70.4622 56.7963 70.4622H59.4916C60.8121 70.4622 61.8856 69.3887 61.8856 68.0682V63.2292C61.8856 61.9087 60.8121 60.8352 59.4916 60.8352H56.7963Z" fill="white"/>
<path d="M70.2679 73.7568H67.5726C64.436 73.7568 61.8856 71.2064 61.8856 68.0699V61.4938C61.8856 58.3589 64.436 55.8069 67.5726 55.8069H70.2679C73.4044 55.8069 75.9548 58.3573 75.9548 61.4938V68.0699C75.9548 71.2064 73.4044 73.7568 70.2679 73.7568ZM67.5726 59.1015C66.2521 59.1015 65.1786 60.175 65.1786 61.4955V68.0715C65.1786 69.392 66.2521 70.4655 67.5726 70.4655H70.2679C71.5884 70.4655 72.6619 69.392 72.6619 68.0715V61.4955C72.6619 60.175 71.5884 59.1015 70.2679 59.1015H67.5726Z" fill="white"/>
<path d="M81.0458 73.7568H78.3488C75.2139 73.7568 72.6619 71.2064 72.6619 68.0699V58.9368C72.6619 55.8019 75.2123 53.2499 78.3488 53.2499H81.0458C84.1807 53.2499 86.7327 55.8003 86.7327 58.9368V68.0699C86.7327 71.2064 84.1807 73.7568 81.0458 73.7568ZM78.3488 56.5428C77.0283 56.5428 75.9548 57.6164 75.9548 58.9368V68.0699C75.9548 69.3904 77.0283 70.4639 78.3488 70.4639H81.0458C82.3662 70.4639 83.4397 69.3904 83.4397 68.0699V58.9368C83.4397 57.6164 82.3662 56.5428 81.0458 56.5428H78.3488Z" fill="white"/>
<path d="M91.8221 73.7568H89.1251C85.9902 73.7568 83.4398 71.2064 83.4398 68.0699V61.4938C83.4398 58.3589 85.9902 55.8069 89.1251 55.8069H91.8221C94.957 55.8069 97.509 58.3573 97.509 61.4938V68.0699C97.509 71.2064 94.957 73.7568 91.8221 73.7568ZM89.1251 59.1015C87.8063 59.1015 86.7328 60.175 86.7328 61.4955V68.0715C86.7328 69.392 87.8063 70.4655 89.1251 70.4655H91.8221C93.1426 70.4655 94.2161 69.392 94.2161 68.0715V61.4955C94.2161 60.175 93.1426 59.1015 91.8221 59.1015H89.1251Z" fill="white"/>
<path d="M46.912 51.096H50.736V53H44.56V50.872L48.56 43.704H44.928V41.8H50.896V43.928L46.912 51.096ZM54.5411 45V50.088C54.5411 50.3547 54.5625 50.568 54.6051 50.728C54.6478 50.888 54.7065 51.0107 54.7811 51.096C54.8558 51.1813 54.9465 51.24 55.0531 51.272C55.1705 51.2933 55.2985 51.304 55.4371 51.304C55.8425 51.304 56.1305 51.176 56.3011 50.92C56.4825 50.664 56.5731 50.392 56.5731 50.104V45H58.7011V53H56.9731L56.8291 52.376C56.5838 52.6107 56.3065 52.7973 55.9971 52.936C55.6878 53.0747 55.3305 53.144 54.9251 53.144C54.4238 53.144 54.0078 53.08 53.6771 52.952C53.3571 52.824 53.1011 52.632 52.9091 52.376C52.7278 52.1093 52.5998 51.784 52.5251 51.4C52.4505 51.0053 52.4131 50.5467 52.4131 50.024V45H54.5411ZM64.9664 53L63.2384 49.688L62.9024 50.12V53H60.7744V41.8H62.9024V47.4L64.8224 45H67.2544L64.5504 48.2L67.4144 53H64.9664ZM70.4883 43.72L68.0563 41.56H70.6003L72.2643 43.72H70.4883ZM84.4363 52.856C84.0096 52.9413 83.5509 53.0107 83.0603 53.064C82.5803 53.1173 82.1216 53.144 81.6843 53.144C81.0123 53.144 80.4363 53.0587 79.9563 52.888C79.4869 52.7173 79.1029 52.4133 78.8043 51.976C78.5056 51.528 78.2869 50.9253 78.1483 50.168C78.0203 49.4 77.9563 48.4187 77.9563 47.224C77.9563 46.04 78.0469 45.0853 78.2283 44.36C78.4096 43.6347 78.6709 43.0747 79.0123 42.68C79.3643 42.2747 79.7963 42.0027 80.3083 41.864C80.8203 41.7253 81.4069 41.656 82.0683 41.656C82.3349 41.656 82.6549 41.6827 83.0283 41.736C83.4123 41.7893 83.7696 41.8533 84.1003 41.928V43.816C83.7589 43.752 83.3909 43.6987 82.9963 43.656C82.6123 43.6027 82.2496 43.576 81.9083 43.576C81.5776 43.576 81.3003 43.624 81.0763 43.72C80.8523 43.816 80.6709 44.0027 80.5323 44.28C80.4043 44.5467 80.3136 44.9253 80.2603 45.416C80.2069 45.9067 80.1803 46.5467 80.1803 47.336C80.1803 48.136 80.2016 48.792 80.2443 49.304C80.2976 49.8053 80.3776 50.2 80.4843 50.488C80.6016 50.776 80.7509 50.9733 80.9323 51.08C81.1243 51.176 81.3589 51.224 81.6363 51.224C81.7536 51.224 81.8656 51.224 81.9723 51.224C82.0896 51.224 82.2016 51.2187 82.3083 51.208V48.68H81.2843V46.792H84.4363V52.856ZM90.6565 48.072V53H88.4165V48.072L85.4725 41.8H87.8405L89.6165 46.12L91.3925 41.8H93.6485L90.6565 48.072ZM101.365 53V43.416L99.9885 49.24H98.3245L96.8845 43.416V53H94.9325V41.8H98.2605L99.2045 46.104L100.165 41.8H103.349V53H101.365Z" fill="white"/>
</g>
<defs>
<clipPath id="clip0_1_30">
<rect width="150" height="150" fill="white"/>
</clipPath>
</defs>
</svg>
